<svg width="433" height="443" viewBox="0 0 433 443" fill="none" xmlns="http://www.w3.org/2000/svg">
<circle cx="215.5" cy="217.5" r="161.5" fill="black"/>
<path d="M69.2567 247.078L106.835 106.835L247.078 69.2567L349.743 171.922L312.165 312.165L171.922 349.743L69.2567 247.078Z" stroke="white" stroke-width="4"/>
<path d="M363.84 185.018L326.262 325.262L186.018 362.84L83.3532 260.175L120.931 119.931L261.175 82.3532L363.84 185.018Z" stroke="white" stroke-width="4"/>
<path d="M125.256 258V148.909H170.32C178.488 148.909 185.537 150.507 191.467 153.703C197.433 156.864 202.032 161.285 205.263 166.967C208.495 172.613 210.111 179.183 210.111 186.675C210.111 194.204 208.46 200.791 205.157 206.438C201.89 212.048 197.22 216.398 191.148 219.488C185.075 222.577 177.866 224.122 169.521 224.122H141.716V203.348H164.621C168.598 203.348 171.918 202.656 174.582 201.271C177.281 199.886 179.322 197.95 180.707 195.464C182.092 192.943 182.785 190.013 182.785 186.675C182.785 183.302 182.092 180.39 180.707 177.94C179.322 175.454 177.281 173.536 174.582 172.187C171.883 170.837 168.563 170.163 164.621 170.163H151.624V258H125.256Z" fill="white"/>
<path d="M224.256 294V184.909H269.32C277.488 184.909 284.537 186.383 290.467 189.33C296.433 192.242 301.032 196.433 304.263 201.901C307.495 207.335 309.111 213.78 309.111 221.237C309.111 228.801 307.46 235.229 304.157 240.52C300.854 245.776 296.167 249.788 290.094 252.558C284.022 255.293 276.831 256.66 268.521 256.66H240.023V235.886H263.621C267.598 235.886 270.918 235.371 273.582 234.341C276.281 233.276 278.322 231.678 279.707 229.547C281.092 227.381 281.785 224.611 281.785 221.237C281.785 217.864 281.092 215.076 279.707 212.874C278.322 210.637 276.281 208.968 273.582 207.867C270.883 206.731 267.563 206.163 263.621 206.163H250.624V294H224.256ZM285.673 244.142L312.839 294H284.075L257.442 244.142H285.673Z" fill="white"/>
</svg>
